<svg width="116" height="33" viewBox="0 0 116 33" fill="none" xmlns="http://www.w3.org/2000/svg">
<g filter="url(#filter0_i_1_7)">
<path d="M11.016 16.4C12.36 16.4 13.384 16.096 14.088 15.488C14.824 14.848 15.192 13.888 15.192 12.608C15.192 11.392 14.808 10.464 14.04 9.824C13.304 9.152 12.216 8.816 10.776 8.816C10.264 8.816 9.832 8.832 9.48 8.864C9.16 8.864 8.824 8.896 8.472 8.96V16.4H11.016ZM8.52 31.808C8.168 31.904 7.608 32 6.84 32.096C6.104 32.192 5.368 32.24 4.632 32.24C3.896 32.24 3.24 32.176 2.664 32.048C2.12 31.952 1.656 31.76 1.272 31.472C0.888 31.184 0.6 30.784 0.408 30.272C0.216 29.76 0.12 29.088 0.12 28.256V5.648C0.12 4.976 0.296 4.464 0.648 4.112C1.032 3.728 1.544 3.424 2.184 3.2C3.272 2.816 4.504 2.544 5.88 2.384C7.288 2.192 8.696 2.096 10.104 2.096C14.52 2.096 17.896 3.04 20.232 4.928C22.568 6.816 23.736 9.376 23.736 12.608C23.736 14.176 23.48 15.6 22.968 16.88C22.488 18.128 21.752 19.216 20.76 20.144C19.8 21.04 18.568 21.744 17.064 22.256C15.592 22.736 13.88 22.976 11.928 22.976H8.52V31.808ZM27.3866 9.008C27.7066 8.912 28.2026 8.816 28.8746 8.72C29.5786 8.624 30.2986 8.576 31.0346 8.576C31.7386 8.576 32.3626 8.624 32.9066 8.72C33.4826 8.816 33.9626 9.008 34.3466 9.296C34.7306 9.584 35.0186 9.984 35.2106 10.496C35.4346 10.976 35.5466 11.616 35.5466 12.416V22.736C35.5466 24.048 35.8666 24.992 36.5066 25.568C37.1466 26.112 38.0746 26.384 39.2906 26.384C40.0266 26.384 40.6186 26.32 41.0666 26.192C41.5466 26.064 41.9146 25.936 42.1706 25.808V9.008C42.4906 8.912 42.9866 8.816 43.6586 8.72C44.3626 8.624 45.0826 8.576 45.8186 8.576C46.5226 8.576 47.1466 8.624 47.6906 8.72C48.2666 8.816 48.7466 9.008 49.1306 9.296C49.5146 9.584 49.8026 9.984 49.9946 10.496C50.2186 10.976 50.3306 11.616 50.3306 12.416V27.008C50.3306 28.608 49.6586 29.808 48.3146 30.608C47.1946 31.312 45.8506 31.84 44.2826 32.192C42.7466 32.576 41.0666 32.768 39.2426 32.768C37.5146 32.768 35.9146 32.576 34.4426 32.192C33.0026 31.808 31.7546 31.216 30.6986 30.416C29.6426 29.616 28.8266 28.592 28.2506 27.344C27.6746 26.064 27.3866 24.528 27.3866 22.736V9.008ZM63.6281 31.952C63.2761 32.016 62.7481 32.096 62.0441 32.192C61.3721 32.32 60.6841 32.384 59.9801 32.384C59.2761 32.384 58.6361 32.336 58.0601 32.24C57.5161 32.144 57.0521 31.952 56.6681 31.664C56.2841 31.376 55.9801 30.992 55.7561 30.512C55.5641 30 55.4681 29.344 55.4681 28.544V0.704C55.8201 0.639998 56.3321 0.559999 57.0041 0.464C57.7081 0.335999 58.4121 0.271999 59.1161 0.271999C59.8201 0.271999 60.4441 0.319999 60.9881 0.415998C61.5641 0.511998 62.0441 0.703999 62.4281 0.991999C62.8121 1.28 63.1001 1.68 63.2921 2.192C63.5161 2.672 63.6281 3.312 63.6281 4.112V31.952ZM88.4573 25.04C88.4573 27.472 87.5453 29.376 85.7213 30.752C83.8973 32.128 81.2093 32.816 77.6573 32.816C76.3133 32.816 75.0653 32.72 73.9133 32.528C72.7613 32.336 71.7693 32.048 70.9373 31.664C70.1373 31.248 69.4973 30.736 69.0173 30.128C68.5693 29.52 68.3453 28.8 68.3453 27.968C68.3453 27.2 68.5053 26.56 68.8253 26.048C69.1453 25.504 69.5293 25.056 69.9773 24.704C70.9053 25.216 71.9613 25.68 73.1453 26.096C74.3613 26.48 75.7533 26.672 77.3213 26.672C78.3133 26.672 79.0653 26.528 79.5773 26.24C80.1213 25.952 80.3932 25.568 80.3932 25.088C80.3932 24.64 80.2013 24.288 79.8173 24.032C79.4333 23.776 78.7933 23.568 77.8973 23.408L76.4573 23.12C73.6733 22.576 71.5933 21.728 70.2173 20.576C68.8733 19.392 68.2013 17.712 68.2013 15.536C68.2013 14.352 68.4573 13.28 68.9693 12.32C69.4813 11.36 70.2013 10.56 71.1293 9.92C72.0573 9.28 73.1613 8.784 74.4413 8.432C75.7533 8.08 77.1933 7.904 78.7613 7.904C79.9453 7.904 81.0493 8 82.0733 8.192C83.1293 8.352 84.0413 8.608 84.8093 8.96C85.5773 9.312 86.1853 9.776 86.6333 10.352C87.0813 10.896 87.3053 11.552 87.3053 12.32C87.3053 13.056 87.1613 13.696 86.8733 14.24C86.6173 14.752 86.2813 15.184 85.8653 15.536C85.6093 15.376 85.2253 15.216 84.7133 15.056C84.2013 14.864 83.6413 14.704 83.0333 14.576C82.4253 14.416 81.8013 14.288 81.1613 14.192C80.5533 14.096 79.9933 14.048 79.4813 14.048C78.4253 14.048 77.6093 14.176 77.0333 14.432C76.4573 14.656 76.1693 15.024 76.1693 15.536C76.1693 15.888 76.3293 16.176 76.6493 16.4C76.9693 16.624 77.5773 16.832 78.4733 17.024L79.9613 17.36C83.0333 18.064 85.2093 19.04 86.4893 20.288C87.8013 21.504 88.4573 23.088 88.4573 25.04ZM104.973 32.768C103.085 32.768 101.325 32.512 99.6926 32C98.0926 31.456 96.6846 30.656 95.4686 29.6C94.2846 28.544 93.3406 27.216 92.6366 25.616C91.9646 24.016 91.6286 22.144 91.6286 20C91.6286 17.888 91.9646 16.08 92.6366 14.576C93.3406 13.04 94.2526 11.792 95.3726 10.832C96.4926 9.84 97.7726 9.12 99.2126 8.672C100.653 8.192 102.125 7.952 103.629 7.952C105.325 7.952 106.861 8.208 108.237 8.72C109.645 9.232 110.845 9.936 111.837 10.832C112.861 11.728 113.645 12.8 114.189 14.048C114.765 15.296 115.053 16.656 115.053 18.128C115.053 19.216 114.749 20.048 114.141 20.624C113.533 21.2 112.685 21.568 111.597 21.728L99.7406 23.504C100.093 24.56 100.813 25.36 101.901 25.904C102.989 26.416 104.237 26.672 105.645 26.672C106.957 26.672 108.189 26.512 109.341 26.192C110.525 25.84 111.485 25.44 112.221 24.992C112.733 25.312 113.165 25.76 113.517 26.336C113.869 26.912 114.045 27.52 114.045 28.16C114.045 29.6 113.373 30.672 112.029 31.376C111.005 31.92 109.853 32.288 108.573 32.48C107.293 32.672 106.093 32.768 104.973 32.768ZM103.629 13.904C102.861 13.904 102.189 14.032 101.613 14.288C101.069 14.544 100.621 14.88 100.269 15.296C99.9166 15.68 99.6446 16.128 99.4526 16.64C99.2926 17.12 99.1966 17.616 99.1646 18.128L107.373 16.784C107.277 16.144 106.925 15.504 106.317 14.864C105.709 14.224 104.813 13.904 103.629 13.904Z" fill="url(#paint0_linear_1_7)"/>
</g>
<defs>
<filter id="filter0_i_1_7" x="0.119995" y="0.272003" width="114.933" height="32.544" filterUnits="userSpaceOnUse" color-interpolation-filters="sRGB">
<feFlood flood-opacity="0" result="BackgroundImageFix"/>
<feBlend mode="normal" in="SourceGraphic" in2="BackgroundImageFix" result="shape"/>
<feColorMatrix in="SourceAlpha" type="matrix" values="0 0 0 0 0 0 0 0 0 0 0 0 0 0 0 0 0 0 127 0" result="hardAlpha"/>
<feOffset/>
<feGaussianBlur stdDeviation="2.15"/>
<feComposite in2="hardAlpha" operator="arithmetic" k2="-1" k3="1"/>
<feColorMatrix type="matrix" values="0 0 0 0 0 0 0 0 0 0 0 0 0 0 0 0 0 0 0.25 0"/>
<feBlend mode="normal" in2="shape" result="effect1_innerShadow_1_7"/>
</filter>
<linearGradient id="paint0_linear_1_7" x1="-3" y1="19.5" x2="117" y2="19.5" gradientUnits="userSpaceOnUse">
<stop stop-color="#3352CC"/>
<stop offset="0.4" stop-color="#656CD4"/>
<stop offset="0.7" stop-color="#9434E6"/>
<stop offset="1" stop-color="#CC3BD4"/>
</linearGradient>
</defs>
</svg>
